<svg xmlns="http://www.w3.org/2000/svg" width="761" height="806" viewBox="0 0 761 806" fill="none">
    <path d="M2 42V40C0.89543 40 0 40.8954 0 42H2ZM41 42V44C42.1046 44 43 43.1046 43 42H41ZM41 2.5V0.5C39.8954 0.5 39 1.39543 39 2.5L41 2.5ZM719 2.5H721C721 1.39543 720.105 0.5 719 0.5V2.5ZM719 42H717C717 43.1046 717.895 44 719 44V42ZM759 42H761C761 40.8954 760.105 40 759 40V42ZM759 764V766C760.105 766 761 765.105 761 764H759ZM719 764V762C717.895 762 717 762.895 717 764H719ZM719 803.5V805.5C720.105 805.5 721 804.605 721 803.5H719ZM41 803.5H39C39 804.605 39.8954 805.5 41 805.5V803.5ZM41 764H43C43 762.895 42.1046 762 41 762V764ZM2 764H0C0 765.105 0.89543 766 2 766L2 764ZM2 44H41V40H2V44ZM43 42V2.5H39V42H43ZM41 4.5H719V0.5H41V4.5ZM721 42V2.5H717V42H721ZM759 40H719V44H759V40ZM757 42V764H761V42H757ZM759 762H719V766H759V762ZM717 764V803.5H721V764H717ZM719 801.5H41V805.5H719V801.5ZM43 803.5V764H39V803.5H43ZM41 762H2V766H41V762ZM4 764V42H0V764H4Z" fill="#7F563E"/>
    <path d="M173.136 784H740V21H21V784H200.75" stroke="#7F563E" stroke-width="4" stroke-linejoin="round"/>
</svg>